<mxfile modified="2023-07-04T07:51:09.328Z" host="app.diagrams.net" agent="Mozilla/5.0 (Windows NT 10.0; Win64; x64) AppleWebKit/537.36 (KHTML, like Gecko) Chrome/114.0.0.0 Safari/537.36" etag="CaCKjzbDzI9Uf_rMujZi" version="21.5.2" type="github">
  <diagram id="Ht1M8jgEwFfnCIfOTk4-" name="Page-1">
    <mxGraphModel dx="954" dy="519" grid="1" gridSize="10" guides="1" tooltips="1" connect="1" arrows="1" fold="1" page="1" pageScale="1" pageWidth="1169" pageHeight="827" background="none" math="0" shadow="0">
      <root>
        <mxCell id="0" />
        <mxCell id="1" parent="0" />
        <mxCell id="5QW6uSC1IfxTpdPqibn2-9" value="VPC" style="points=[[0,0],[0.25,0],[0.5,0],[0.75,0],[1,0],[1,0.25],[1,0.5],[1,0.75],[1,1],[0.75,1],[0.5,1],[0.25,1],[0,1],[0,0.75],[0,0.5],[0,0.25]];outlineConnect=0;gradientColor=none;html=1;whiteSpace=wrap;fontSize=12;fontStyle=0;container=1;pointerEvents=0;collapsible=0;recursiveResize=0;shape=mxgraph.aws4.group;grIcon=mxgraph.aws4.group_vpc;strokeColor=#248814;fillColor=none;verticalAlign=top;align=left;spacingLeft=30;fontColor=#AAB7B8;dashed=0;" parent="1" vertex="1">
          <mxGeometry x="90" y="120" width="660" height="400" as="geometry" />
        </mxCell>
        <mxCell id="5QW6uSC1IfxTpdPqibn2-11" value="Public subnet" style="points=[[0,0],[0.25,0],[0.5,0],[0.75,0],[1,0],[1,0.25],[1,0.5],[1,0.75],[1,1],[0.75,1],[0.5,1],[0.25,1],[0,1],[0,0.75],[0,0.5],[0,0.25]];outlineConnect=0;gradientColor=none;html=1;whiteSpace=wrap;fontSize=12;fontStyle=0;container=1;pointerEvents=0;collapsible=0;recursiveResize=0;shape=mxgraph.aws4.group;grIcon=mxgraph.aws4.group_security_group;grStroke=0;strokeColor=#248814;fillColor=#E9F3E6;verticalAlign=top;align=left;spacingLeft=30;fontColor=#248814;dashed=0;" parent="5QW6uSC1IfxTpdPqibn2-9" vertex="1">
          <mxGeometry x="40" y="20" width="620" height="220" as="geometry" />
        </mxCell>
        <mxCell id="wcQuLz7lPZcZeEcIt2lJ-3" value="EC2 instance contents" style="points=[[0,0],[0.25,0],[0.5,0],[0.75,0],[1,0],[1,0.25],[1,0.5],[1,0.75],[1,1],[0.75,1],[0.5,1],[0.25,1],[0,1],[0,0.75],[0,0.5],[0,0.25]];outlineConnect=0;gradientColor=none;html=1;whiteSpace=wrap;fontSize=12;fontStyle=0;container=1;pointerEvents=0;collapsible=0;recursiveResize=0;shape=mxgraph.aws4.group;grIcon=mxgraph.aws4.group_ec2_instance_contents;strokeColor=#D86613;fillColor=none;verticalAlign=top;align=left;spacingLeft=30;fontColor=#D86613;dashed=0;" vertex="1" parent="5QW6uSC1IfxTpdPqibn2-11">
          <mxGeometry x="185" y="45" width="405" height="155" as="geometry" />
        </mxCell>
        <mxCell id="5QW6uSC1IfxTpdPqibn2-8" value="" style="image;sketch=0;aspect=fixed;html=1;points=[];align=center;fontSize=12;image=img/lib/mscae/Docker.svg;" parent="wcQuLz7lPZcZeEcIt2lJ-3" vertex="1">
          <mxGeometry x="75" y="65" width="63" height="51.66" as="geometry" />
        </mxCell>
        <mxCell id="wcQuLz7lPZcZeEcIt2lJ-15" value="&lt;h1&gt;jenkins&amp;nbsp;&lt;/h1&gt;" style="rounded=1;whiteSpace=wrap;html=1;strokeColor=#FFFFFF;" vertex="1" parent="wcQuLz7lPZcZeEcIt2lJ-3">
          <mxGeometry x="170" y="65" width="95" height="51.04" as="geometry" />
        </mxCell>
        <mxCell id="wcQuLz7lPZcZeEcIt2lJ-17" value="" style="rounded=1;whiteSpace=wrap;html=1;fontColor=#000000;fillColor=none;strokeColor=#3700CC;arcSize=22;" vertex="1" parent="wcQuLz7lPZcZeEcIt2lJ-3">
          <mxGeometry x="45" y="45.52" width="260" height="90" as="geometry" />
        </mxCell>
        <mxCell id="wcQuLz7lPZcZeEcIt2lJ-19" value="&lt;h2&gt;&lt;font color=&quot;#ff3333&quot;&gt;Ansible&lt;/font&gt;&lt;/h2&gt;" style="text;html=1;align=center;verticalAlign=middle;resizable=0;points=[];autosize=1;strokeColor=none;fillColor=none;" vertex="1" parent="wcQuLz7lPZcZeEcIt2lJ-3">
          <mxGeometry x="295" y="5" width="90" height="60" as="geometry" />
        </mxCell>
        <mxCell id="wcQuLz7lPZcZeEcIt2lJ-7" value="" style="edgeStyle=orthogonalEdgeStyle;rounded=0;orthogonalLoop=1;jettySize=auto;html=1;strokeColor=#000000;" edge="1" parent="5QW6uSC1IfxTpdPqibn2-11" source="UEzPUAAOIrF-is8g5C7q-122">
          <mxGeometry relative="1" as="geometry">
            <mxPoint x="180" y="122" as="targetPoint" />
            <Array as="points">
              <mxPoint x="180" y="122" />
              <mxPoint x="180" y="122" />
            </Array>
          </mxGeometry>
        </mxCell>
        <mxCell id="UEzPUAAOIrF-is8g5C7q-122" value="IAM Roles" style="outlineConnect=0;fontColor=#232F3E;gradientColor=none;fillColor=#C7131F;strokeColor=none;dashed=0;verticalLabelPosition=bottom;verticalAlign=top;align=center;html=1;fontSize=12;fontStyle=0;aspect=fixed;pointerEvents=1;shape=mxgraph.aws4.role;labelBackgroundColor=#ffffff;" parent="5QW6uSC1IfxTpdPqibn2-11" vertex="1">
          <mxGeometry x="30.000000000000227" y="99.98" width="78" height="44" as="geometry" />
        </mxCell>
        <mxCell id="wcQuLz7lPZcZeEcIt2lJ-11" value="" style="edgeStyle=orthogonalEdgeStyle;rounded=0;orthogonalLoop=1;jettySize=auto;html=1;" edge="1" parent="5QW6uSC1IfxTpdPqibn2-9" source="5QW6uSC1IfxTpdPqibn2-3" target="5QW6uSC1IfxTpdPqibn2-2">
          <mxGeometry relative="1" as="geometry" />
        </mxCell>
        <mxCell id="5QW6uSC1IfxTpdPqibn2-3" value="" style="sketch=0;points=[[0,0,0],[0.25,0,0],[0.5,0,0],[0.75,0,0],[1,0,0],[0,1,0],[0.25,1,0],[0.5,1,0],[0.75,1,0],[1,1,0],[0,0.25,0],[0,0.5,0],[0,0.75,0],[1,0.25,0],[1,0.5,0],[1,0.75,0]];outlineConnect=0;fontColor=#232F3E;gradientColor=#FF4F8B;gradientDirection=north;fillColor=#BC1356;strokeColor=#ffffff;dashed=0;verticalLabelPosition=bottom;verticalAlign=top;align=center;html=1;fontSize=12;fontStyle=0;aspect=fixed;shape=mxgraph.aws4.resourceIcon;resIcon=mxgraph.aws4.eventbridge;" parent="5QW6uSC1IfxTpdPqibn2-9" vertex="1">
          <mxGeometry x="200" y="290" width="78" height="78" as="geometry" />
        </mxCell>
        <mxCell id="wcQuLz7lPZcZeEcIt2lJ-8" value="" style="edgeStyle=orthogonalEdgeStyle;rounded=0;orthogonalLoop=1;jettySize=auto;html=1;strokeColor=#000000;" edge="1" parent="5QW6uSC1IfxTpdPqibn2-9" source="5QW6uSC1IfxTpdPqibn2-4" target="UEzPUAAOIrF-is8g5C7q-122">
          <mxGeometry relative="1" as="geometry" />
        </mxCell>
        <mxCell id="wcQuLz7lPZcZeEcIt2lJ-9" value="" style="edgeStyle=orthogonalEdgeStyle;rounded=0;orthogonalLoop=1;jettySize=auto;html=1;" edge="1" parent="5QW6uSC1IfxTpdPqibn2-9" source="5QW6uSC1IfxTpdPqibn2-4" target="5QW6uSC1IfxTpdPqibn2-3">
          <mxGeometry relative="1" as="geometry" />
        </mxCell>
        <mxCell id="5QW6uSC1IfxTpdPqibn2-4" value="" style="sketch=0;outlineConnect=0;fontColor=#232F3E;gradientColor=none;fillColor=#B0084D;strokeColor=none;dashed=0;verticalLabelPosition=bottom;verticalAlign=top;align=center;html=1;fontSize=12;fontStyle=0;aspect=fixed;pointerEvents=1;shape=mxgraph.aws4.eventbridge_scheduler;" parent="5QW6uSC1IfxTpdPqibn2-9" vertex="1">
          <mxGeometry x="70" y="290" width="78" height="78" as="geometry" />
        </mxCell>
        <mxCell id="wcQuLz7lPZcZeEcIt2lJ-12" value="" style="edgeStyle=orthogonalEdgeStyle;rounded=0;orthogonalLoop=1;jettySize=auto;html=1;" edge="1" parent="5QW6uSC1IfxTpdPqibn2-9" source="5QW6uSC1IfxTpdPqibn2-2" target="5QW6uSC1IfxTpdPqibn2-1">
          <mxGeometry relative="1" as="geometry" />
        </mxCell>
        <mxCell id="5QW6uSC1IfxTpdPqibn2-2" value="" style="sketch=0;points=[[0,0,0],[0.25,0,0],[0.5,0,0],[0.75,0,0],[1,0,0],[0,1,0],[0.25,1,0],[0.5,1,0],[0.75,1,0],[1,1,0],[0,0.25,0],[0,0.5,0],[0,0.75,0],[1,0.25,0],[1,0.5,0],[1,0.75,0]];outlineConnect=0;fontColor=#232F3E;gradientColor=#FF4F8B;gradientDirection=north;fillColor=#BC1356;strokeColor=#ffffff;dashed=0;verticalLabelPosition=bottom;verticalAlign=top;align=center;html=1;fontSize=12;fontStyle=0;aspect=fixed;shape=mxgraph.aws4.resourceIcon;resIcon=mxgraph.aws4.sns;" parent="5QW6uSC1IfxTpdPqibn2-9" vertex="1">
          <mxGeometry x="350" y="290" width="78" height="78" as="geometry" />
        </mxCell>
        <mxCell id="5QW6uSC1IfxTpdPqibn2-1" value="" style="sketch=0;points=[[0,0,0],[0.25,0,0],[0.5,0,0],[0.75,0,0],[1,0,0],[0,1,0],[0.25,1,0],[0.5,1,0],[0.75,1,0],[1,1,0],[0,0.25,0],[0,0.5,0],[0,0.75,0],[1,0.25,0],[1,0.5,0],[1,0.75,0]];outlineConnect=0;fontColor=#232F3E;gradientColor=#FF4F8B;gradientDirection=north;fillColor=#BC1356;strokeColor=#ffffff;dashed=0;verticalLabelPosition=bottom;verticalAlign=top;align=center;html=1;fontSize=12;fontStyle=0;aspect=fixed;shape=mxgraph.aws4.resourceIcon;resIcon=mxgraph.aws4.sqs;" parent="5QW6uSC1IfxTpdPqibn2-9" vertex="1">
          <mxGeometry x="480" y="290" width="78" height="78" as="geometry" />
        </mxCell>
        <mxCell id="wcQuLz7lPZcZeEcIt2lJ-20" value="" style="rounded=1;whiteSpace=wrap;html=1;fillColor=none;strokeColor=#FF6666;" vertex="1" parent="5QW6uSC1IfxTpdPqibn2-9">
          <mxGeometry x="-55" y="-40" width="810" height="470" as="geometry" />
        </mxCell>
        <mxCell id="5QW6uSC1IfxTpdPqibn2-14" value="" style="shape=image;verticalLabelPosition=bottom;verticalAlign=top;imageAspect=0;aspect=fixed;image=data:image/png,iVBORw0KGgoAAAANSUhEUgAAAHAAAACACAYAAADTcu1SAAAAAXNSR0IArs4c6QAADitJREFUeAHtnX1UlFUex5/7PDOAoiWnRGbo5G6FL7XV4lqnrFZAT6booOxOLyuD7FZmdbT3jlu5S55t/SM37XjWNirFGWpLVmEGNLUEcteOWcZmbyrlZh1mSDCtFAVmnrvfB7nwMIHAvD3PzNw5B+597jNz7+9+P3Nfnvs2gi3PveUPlubxAn9FpQIipXRWB+n4uGCu+28Lrd+dH5W5iGOjRSXvgGgUZPrw6bYzDTaL++7iYtoZHse6RE3We4GiAh2Nv5Iv6t37bPM8U6MmF3FsaC+A3TpQ4ZfUJ9ehNG68M989tjuce3SnQN8Au8xEabS2e+mBAot7uc3WlKw767lBwjkBKvpQQUjC/2XC976DADkf7SXhuulHAVJgaQSjIb32GAziktLNpveH9Cn+5rAoMGAJ7CPV67xe+h5KY+nC/GZTH/d5UAQVCAQgzFOqUbqg1ddxqDDPvXTxYpoYQZt5UioFAgTYFQOlI2RKVxw/4vkMIOep4uXeCCkQSBvYr2koljUSkR4sdaZ93O+b+I2QKhBcCfQzBb2hHK8g1xfkNf69cN4PF/jd5pdhUCCkADvto1TCs8d9su/HBgyUL8GwnCEMdvMouxQIPcAeaVPwzPj8l/We/QA5oyeY+0KpQDgBdtoJiBPxt81maawq+s3RjFAaz+MSBh6JCZVIaB9ne70dnxTmNT67eP6x80IVb7zHE/YS2EtgKiTIVHj0xMm2Bjx23MWnrXqpE9BFZAF2mYgqNRXPjy99We/+oCjPfVNAlvMPdSqgCUCmPaVCppfSXba8xtcLre6LWTh3B6+ALrr4AHmb0C6kwuycwZvO36kooGkJVCNAJ4dPU6kFGaRfNwD97cVqgMlYLWf2D+fXZxVAP4Lk5FTN0S1AFMcbOoTO2Y4nioooJpX5iymQk1M9JTu7ai+anjW6BagYiyUdyeitPuM77vncNs+dzzIQr+7MmVsvArgyWZZ3Q4PJig666MQMBATVxc8En7CpIM9dJ4jSg2UVYz4a6DOxdN9qfXdYS8t3j54541sKLYar86brEqg2tNNPaZYg+/ZhbPWFhXe4L/zJ/RgMQHVpbWk5doBSebk/PCW70QVQsRizHcjIotOttKHQ4n5g4UIsSo7B1/TpWzOzsqp2obrciPz2+4wcfQC7YKEBHyULdPXpJs/+wrmembHC8Oabt6einSvx+bwf4Ns64ChVVLSB54KDjs4EKtOtaB+3JFDjI+tcow+e6/16vWe1fprQ3Py/xR0d7X9CiRv0YH/UlsCfgKA0N1o36WRnV+c2Nx/+RBDklUOBp2gQOwCRGWQ+qjbpTJ9ePRHV5XZ0UKphfUBzpTEFkJVKVKu63qSTm1udglGU1Vhfux9fupuZ3YG4MQmwWwidbdKxWqmEx4J7W1vlBlmmD6DUBd0HiW2AXST1sEknJ2drTnNzdT0eC9aiBx2yFXtxAVDhiNkOTTbpoJ27BM9zm2XZuxNWXNldO4TIEzcAmV4AmQ4hywrnuncX5XuuYeGhdq3W2hEAt8Lno58hvbCtWo87gAwUqrHrw7FJB50SkpVVvaC5+eQhgFPGLsO6byRuAZ4FGdpNOtOmVV2PZ7r38DxXCngR2bkV5wC7ymOQm3TwSJCuTPP4fAKmeWjYqmVWe6hdkQjkXqxmaFEHxq+fXoL5x81YhLyzKK9pwA5HUVFtEkrcMlTHh1BVzge8iC8LER0u8z8M4rAMQSTPA6Q3fuH15BwdnQE36SjTPEeOnOx3mqcntvD6OqvQ0sqUE2WV5geJJFxFCNke3iSjJHbVJp3f57snqa1G79LVNc0zVh2uhb9XG+ioMH/ucJpvESVpDoxp0MIgHaaZ0iELvebjCBGu1oudvQAyo+wVadXD08xXCER8DNXqDyycu/pToE+AipklJaSjzGlaSSQxAx2dV1C1yvozn1vUL0AmjaMi7Sg6OncRapgsEPJvFs5dfSgwIEBmpt2VWl/mNP9aJNLtKJFfs3DuaqvAoAEyM+3OtDcuTDRNwFxwMUC2snDuaqPAkAEqZq4qJ6fLXKanDSRxAnpkr2tjOk9VUSAggEy69c4LvnE40++QDMKN6OTsY+HcjZwCQQFkZm7YnL770kzTtaIg3YnHjm9ZOHfDr0BIACpmFhcT2e5KW5cyMnEcNoo9i7/28JvPUwgZQCblmlcv+KHMmf64kGC8Au1jFQvnbngUCDlAZmZZeeoXaB8tkkhm4PkRs9L8FQ4FwgaQGbuh0rzjskzT1aIoLEHYcRbO3dAoEHaAiploH732yvQ1ojQyA23jWpRIX2jM57FEBCCT2V5x3jG0j/cbBDFTOdmQhXM3cAUiCpCZqRxH6XClTxMJwa5bcpiFc3foCmgCkJlpd5orUsaaLicieYII9EcWzt3BKxD00u7BJ9X3O9esIW24s4IfZNC3PgOFaloC1caVlpIz6mvuH5wCugHoby7Wdx3AbMcp/3B+3aMAVsN9qFuAWJuz3SgYx6GTU4Y/LBTjL6YAJg4OiyLJr6ubk69bgIqx2C7tLnOZbfihkSkwei/LQBy7J6HDE0lJ0uU1NXMqFB0078QMBkbp5rQ9WDh73YL8pkLsq1uBrbgRWbY+GNsi8x5CMa7sSEgwLt2+/RaPOk3dAlQ2ieDVXXV2+TfcZz266cd275OA+BBuhnXjiFooDf17MAz5AEpcnzWQbqvQwjzPPTjQZwUOvBupFm9teepJtI9/NBoNl2NIrrMaUd+PFT++sI2SJNpqa+dM6Q+eklfdAsRQWyJK4VLlwDvbXE+RUiLVcNZtGnMYi6zyiSRNA8iP1fei20/OiKL4jNGYMH7nztll6lqor3zpFiAzFtuj06gsr8dhPnsL8r6dwsKZi2WPNZYEU6ZIxPvRThxj4dHpkn8lJRkm1tTMfmrHjhmDeoTSPUAGAiVwskC9u1Gtlt2Vf+wiFq64t5YTn91pWjsiOTmDEHENHjuiapMOStlH+PJl4bHAum3bzK/UeRvIHzUAWUYAcn6bt+0gSuSyh6x0GAtX3BdeG3Xc4TQtMRJyNarVHep7+vSTZti1aOrU2ZNqay3vBGJj1AFUMolqdTh2By1vafMcsFk8Vv+Mr3eaPkP7OIMQyYKG8wv/+9pfkw7UFKtGjRoxrq7O8qKynihQm6ISIMssQF5MBXkjzknbVWg5msnCmetwplVdmmi+QhTEx1Gt6mSTDnmTEMOVtbWzH66szD7BbA3UjWqA3Zmm9CZKvB+gfSyxzWtK7Q6Hp7ictNtdpmeTkqVxRBTWob0J+NuujneofrRxB5F2Ltq5WbW1Mw8O9fP9vT82ACJ3aBtF/N2Nn09vwGPHI/7niL78zzHfOirT78Se8mtRGpUjiyPyArTvAe/hjAwzSt2craFONGYA9ghDz8Njx8rWJvenCyye3J7wsz4sstqH8dUbiSDdAWG/8b8fqmvELeOvBOOWGeigrCopmdwRqrjV8cQgwO7sZfgEuRrV6jYcmD6xO7TL43ClvT5sDJmAYaqnsdDqtP/9YK5R6t4xGKRfAdw9b745S+lphu0VywA7RUO1OoP6hP0Fc92r7/3diRS1kiUl5laslisWE4iySecN9b1A/AB3BKMot6KqzHrrrdz/BhLHUD8T8wDPCoJTAXE64MlTpxrwgyKLNuLUQLVQ9nLz11iEfLsoERxxTD5U3xuMH+BOYX5u2dixIyZgFKV8MJ8J1XviBOBZuZRTAvHo8YKr3VNfaPFk+4torzD/57JJpmuwWu5uQDnqf/+n18o0D3kVpXc8Bpz/UlqaHfFlIXEFsBsApVfKglyD0rjJZm36eXc4PJ2bdJzml0eNSMxAj3Vl/5t0yPuSJNyA6rIA8BrVcUTSr9v5wEiIgNKYT9p8uQD53MhEw1+VqSqWrrJJB/7H8LOxJYLg7VXlop27/+23Z21B6euer2Sfi7SLkSZ9vpTfhFB+ViBi1hGCmW6y1FGZ5tADmMHmOz6r0L7UUZZpUHkDBsn3FOU3XdfXW/QYxgH6UcFjx7Ver/xugcXtKLS2pPvd1t0lB9gnks5zRAtoW/tBDAQ8qedV4xxgnwDPBqKTk4wS+RfvCc8t53ibprc4QE3lDz5xDjB4DTWNgQPUVP7gE+cAg9dQ0xg4QE3lDz5xDjB4DTWNgQPUVP7gE+cAg9dQ0xg4QE3lDz5xDjB4DTWNgQPUVP7gE+cAg9dQ0xg4QE3lDz5xDjB4DTWNgQPUVP7gE+cAg9dQ0xg4QE3lDz5xDjB4DTWNgQPUVP7gE9ctQGNisoMfzzwwYN0CfKX8/O/48cxRDJCZzo9nZkr07eq2BPqbqz6eGUeIdO9h8H9fvF1HDUAFjHI8s6PSvGK4ZByH/Qt27GXQfHOJ1l+YqALIxCrZPNqDA+8WYFOlsodhDwuPRzcqATJQ9krTXoCcApA2bLPSbI8es0cLN6oBKoIpW8HsleYy4XxpPPzPAGTEd8lqAY6lGfUAWUYcjrRTKI1PSaI4ESA3sfBYd2MGIANVWmn6CiB/axDFbJTGj1h4rLoxB5CBAsi6SyeZJ+HAgkWoaFtYeKy5MQtQAdV1YMGLBnFYBn6DYjWq1rCclqTllyKmATJhSytTTjhc5ofwY81XAeQ2Fh4LblwAZKBKN5kPAORMSRBn42yXQyw8mt24AshAbXCZtgwbY/6FKJBH8BzyPQuPRjcuASqgSkpIh91lfs6YQHDONnkJf5qcIxrslyZuATLh1pebmvHYsZBQw2SUxl0sPFrcuAfIQNldqfU4Z3sqBgJuA8gjLFzvLgfoR2hDpWnj6AQTRnPEP6PH2up3W3eXHGAfSFaVk9P4+YLliYZEZXz1NZHgnEP+il4F/M8X1VNO/g8k+slcMVd8QwAAAABJRU5ErkJggg==" parent="1" vertex="1">
          <mxGeometry x="808" y="50" width="72" height="82.29" as="geometry" />
        </mxCell>
      </root>
    </mxGraphModel>
  </diagram>
</mxfile>
